<svg id="Layer_1" enable-background="new 0 0 512 512" height="512" viewBox="0 0 512 512" width="512" xmlns="http://www.w3.org/2000/svg"><g><g><path d="m417.049 0h-99.067l-60.982 27.239-1-.432v241.865h67.683l106.47-191.135c1.243-2.232 1.896-4.745 1.896-7.3v-55.237c0-8.284-6.716-15-15-15z" fill="#009985"/><path d="m194.018 0h-99.067c-8.284 0-15 6.716-15 15v55.237c0 2.555.653 5.067 1.896 7.3l106.471 191.135h67.682v-241.866z" fill="#b5fb49"/></g><g><path d="m194.018 0v278.911h61.982l14.798-131.793-14.798-147.118z" fill="#84e36b"/></g><path d="m256 0h61.982v278.911h-61.982z" fill="#00cc71"/><g><path d="m123.417 379.417c0 73.107 59.477 132.583 132.583 132.583l14.798-126.044-14.798-139.121c-73.106 0-132.583 59.476-132.583 132.582z" fill="#ffd74a"/><path d="m256 246.835v265.165c73.106 0 132.583-59.476 132.583-132.583 0-73.106-59.477-132.582-132.583-132.582z" fill="#fdbf00"/></g><g><path d="m241 349.417v60c0 8.284 6.716 15 15 15l7.5-45-7.5-45c-8.284 0-15 6.716-15 15z" fill="#fdbf00"/></g><path d="m256 334.417v90c8.284 0 15-6.716 15-15v-60c0-8.284-6.716-15-15-15z" fill="#ff9102"/></g></svg>