<svg height="512" viewBox="0 0 58 58" width="512" xmlns="http://www.w3.org/2000/svg"><g id="017---Astronaut-Sitting" fill="none"><path id="Shape" d="m31.16 58h-26c-1.00576204.0028094-1.96021322-.4437529-2.60256519-1.2176709-.64235196-.773918-.90546026-1.7942949-.71743481-2.7823291l1.26-6.45c.15773084-1.3977649.95583107-2.6429491 2.16-3.37 4.74-2.84 2.74-1.86 7.81-3.85.9883553-.4043371 2.0898515-.436316 3.1-.09 6.5 2.16 3.81 1.55 11.69 2.53 1.5522512.1985384 2.8913727 1.1858568 3.54 2.61l2.94 8.1c.375787 1.0350947.2221497 2.1884969-.4114838 3.0891331-.6336334.9006362-1.6673256 1.4348848-2.7685162 1.4308669z" fill="#7f8c8d"/><path id="Shape" d="m34.34 53.48c-.4659127 1.3585362-1.7437915 2.2707327-3.18 2.27h-26c-1.4416598-.0256015-2.70937175-.9603385-3.16-2.33l1.1-5.87c.15773084-1.3977649.95583107-2.6429491 2.16-3.37 4.61-2.75 2.79-1.86 7.81-3.85.9883553-.4043371 2.0898515-.436316 3.1-.09 6.66 2.21 3.84 1.55 11.69 2.53 1.5522512.1985384 2.8913727 1.1858568 3.54 2.61z" fill="#95a5a5"/><path id="Shape" d="m21.73 42c-.356899.6181681-1.0162016.9992679-1.73 1h-9c-.767048-.0003302-1.46633417-.4393266-1.8-1.13.1-.07 3.13-1.25 3.87-1.54.9883553-.4043371 2.0898515-.436316 3.1-.09 5.04 1.68 5.03 1.7 5.56 1.76z" fill="#7f8c8d"/><path id="Shape" d="m31.63 46c-3.67 0-8.06-.53-9.4-3.93l5.63.7c1.5522512.1985384 2.8913727 1.1858568 3.54 2.61z" fill="#7f8c8d"/><path id="Shape" d="m57 55c0 1.6568542-1.3431458 3-3 3h-7.3c-1.1816709.0152406-2.3096018-.4928251-3.0812257-1.3879089-.771624-.8950837-1.1079557-2.0855626-.9187743-3.2520911l1.56-9.36h-13.26c-4.67 0-6.92-1.35-8-2.64-.5831731-.6556832-.9345536-1.4849411-1-2.36v-18c-.0319546-2.5181581 1.5327054-4.7808972 3.9-5.64 1.69 3.91 13 6.35 14.28 5.82.3555304 2.8757196.3555304 5.7842804 0 8.66.71.1 4.83.16 5.83.16 1.6568542 0 3 1.3431458 3 3s-1.3431458 3-3 3h.87c1.8879811-.0121207 3.6715496.8651215 4.8144077 2.3679504s1.51169 3.4559377.9955923 5.2720496l-2.37 7.36h2.68c2.209139 0 4 1.790861 4 4z" fill="#f29c1f"/><path id="Shape" d="m47 11c0 6.0751322-4.9248678 11-11 11s-11-4.9248678-11-11c0-6.07513225 4.9248678-11 11-11s11 4.92486775 11 11z" fill="#f0c419"/><path id="Shape" d="m42.38 20c-3.3939189.3064986-6.6428222-1.44358-8.2541914-4.4462649-1.6113692-3.0026848-1.2736854-6.67747966.8579225-9.33621524s5.6450452-3.78740999 8.9262689-2.86751986c2.2423929 2.30473394 3.3640254 5.47526966 3.069777 8.6773849-.2942484 3.2021153-1.9749111 6.1151428-4.599777 7.9726151z" fill="#35495e"/><rect id="Rectangle-path" fill="#3f5c6c" height="23" rx="2" width="13" x="9" y="18"/><rect id="Rectangle-path" fill="#3f5c6c" height="14" rx="2" width="13" x="9"/><path id="Rectangle-path" d="m11 14h9v4h-9z" fill="#35495e"/><path id="Shape" d="m57 55c0 1.6568542-1.3431458 3-3 3h-7.3c-1.1816709.0152406-2.3096018-.4928251-3.0812257-1.3879089-.771624-.8950837-1.1079557-2.0855626-.9187743-3.2520911l1.56-9.36h-13.26c-4.67 0-6.92-1.35-8-2.64-.5831731-.6556832-.9345536-1.4849411-1-2.36v-4c28.28 0 26.31-.07 26.12.12-.5620694.5627699-1.3246186.8792998-2.12.88h.87c1.8879811-.0121207 3.6715496.8651215 4.8144077 2.3679504s1.51169 3.4559377.9955923 5.2720496l-2.36 7.36h2.68c2.209139 0 4 1.790861 4 4z" fill="#e57e25"/><path id="Shape" d="m48.82 34c-.4227483 1.1957287-1.5517451 1.9964356-2.82 2h-5.53c-4.49 0-9.09-.07-11.92-3-1.89-2-2.72-4.91-2.55-9 0-.5522847.4477153-1 1-1s1 .4477153 1 1c-.15 3.53.5 6 2 7.54 2.31 2.46 6.59 2.46 10.83 2.46z" fill="#e57e25"/><path id="Shape" d="m48.71 36.28c-.4948806 1.0490044-1.5501227 1.7187521-2.71 1.72h-5.53c-4.47 0-9.06-.07-11.89-3h3.55c2.37 1 5.55 1 8.7 1 6.37 0 6.68-.09 7.88.28z" fill="#d25627"/><path id="Shape" d="m40.36 27.85c0 .64-.1 1.31-.19 2-6.09-.36-6.36-4.88-6.36-4.93 0-.5522847.4477153-1 1-1s1 .4477153 1 1c.02.2.32 2.71 4.55 2.93z" fill="#e57e25"/><path id="Shape" d="m13 25c-.5522847 0-1-.4477153-1-1v-2c0-.5522847.4477153-1 1-1s1 .4477153 1 1v2c0 .5522847-.4477153 1-1 1z" fill="#547580"/><path id="Shape" d="m13 38c-.5522847 0-1-.4477153-1-1v-9c0-.5522847.4477153-1 1-1s1 .4477153 1 1v9c0 .5522847-.4477153 1-1 1z" fill="#547580"/><path id="Shape" d="m9 54c-.31257407.0091729-.61144303-.1284007-.80774664-.3718172s-.267438-.564647-.19225336-.8681828l1-4c.07063401-.2819407.26044089-.5191993.52-.65l4-2c.3211808-.1932607.7234705-.1906728 1.0421383.0067041.3186678.1973768.5001928.5563928.4702434.9300368s-.2663431.6991617-.6123817.8432591l-3.59 1.8-.83 3.55c-.11281553.4571833-.52930282.7737136-1 .76z" fill="#bdc3c7"/><g fill="#f0c419"><path id="Shape" d="m51 27c-.5522847 0-1-.4477153-1-1v-4c0-.5522847.4477153-1 1-1s1 .4477153 1 1v4c0 .5522847-.4477153 1-1 1z"/><path id="Shape" d="m53 25h-4c-.5522847 0-1-.4477153-1-1s.4477153-1 1-1h4c.5522847 0 1 .4477153 1 1s-.4477153 1-1 1z"/><path id="Shape" d="m55 6c-.5522847 0-1-.44771525-1-1v-4c0-.55228475.4477153-1 1-1s1 .44771525 1 1v4c0 .55228475-.4477153 1-1 1z"/><path id="Shape" d="m57 4h-4c-.5522847 0-1-.44771525-1-1s.4477153-1 1-1h4c.5522847 0 1 .44771525 1 1s-.4477153 1-1 1z"/><path id="Shape" d="m3 19c-.55228475 0-1-.4477153-1-1v-4c0-.5522847.44771525-1 1-1s1 .4477153 1 1v4c0 .5522847-.44771525 1-1 1z"/><path id="Shape" d="m5 17h-4c-.55228475 0-1-.4477153-1-1s.44771525-1 1-1h4c.55228475 0 1 .4477153 1 1s-.44771525 1-1 1z"/></g><path id="Shape" d="m57 55c0 1.6568542-1.3431458 3-3 3h-7.3c-1.1816709.0152406-2.3096018-.4928251-3.0812257-1.3879089-.771624-.8950837-1.1079557-2.0855626-.9187743-3.2520911l.43-2.36h9.87c2.209139 0 4 1.790861 4 4z" fill="#35495e"/><path id="Shape" d="m37 11c-.5522847 0-1-.4477153-1-1 0-4 3.92-5 6-5 .5522847 0 1 .44771525 1 1s-.4477153 1-1 1c-.18 0-4 .06-4 3 0 .5522847-.4477153 1-1 1z" fill="#547580"/><path id="Shape" d="m47 10.8c.0786293 3.6425372-1.651434 7.0876848-4.62 9.2-4.2357839.4278367-8.1359948-2.3403305-9.13-6.48 4.17.37 9.44.08 13.75-2.72z" fill="#2c3e50"/></g></svg>