<svg id="Layer_1" enable-background="new 0 0 512 512" height="512" viewBox="0 0 512 512" width="512" xmlns="http://www.w3.org/2000/svg"><g><g id="XMLID_309_"><g><g id="XMLID_897_"><g id="XMLID_898_"><g id="XMLID_899_"><g id="XMLID_900_"><g id="XMLID_901_"><g id="XMLID_902_"><g id="XMLID_903_"><g id="XMLID_906_"><g id="XMLID_921_"><g id="XMLID_922_"><g id="XMLID_923_"><g id="XMLID_924_"><g id="XMLID_925_"><g id="XMLID_926_"><circle cx="256" cy="256" fill="#ff807d" r="256"/></g></g></g></g></g></g></g></g></g></g></g></g></g></g></g></g><path d="m512 256c0-38.103-8.337-74.255-23.266-106.75l-51.029-51.292-32.048 22.435-58.546-58.545-179.566 152.691-90.599 135.961 90.4 90.783-8.978 25.069 38.368 38.739c19.024 4.509 38.862 6.909 59.264 6.909 141.385 0 256-114.615 256-256z" fill="#fc3e53"/><path d="m314.172 349.966h-116.349l-16.31 91.34h148.97z" fill="#eae1dc"/><path d="m330.482 441.306h-74.484v-91.343h58.179l1.155 6.492 12.962 72.583z" fill="#cec5c0"/><path d="m420.274 356.455h-328.553c-11.769 0-21.398-9.629-21.398-21.398v-225.045c0-11.769 9.629-21.398 21.398-21.398h328.553c11.769 0 21.398 9.629 21.398 21.398v225.045c.001 11.769-9.629 21.398-21.398 21.398z" fill="#fff"/><path d="m441.677 110.49v224.087c0 12.033-9.845 21.877-21.877 21.877h-163.802v-267.841h163.802c12.033 0 21.877 9.845 21.877 21.877z" fill="#eae1dc"/><path d="m105.968 123.685h300.06v197.699h-300.06z" fill="#238cf8"/><g><g><g><path d="m255.998 123.688h150.032v197.692h-150.032z" fill="#0768dd"/></g></g></g><path d="m158.368 429.038h195.259v37.314h-195.259z" fill="#fff"/><path d="m255.998 429.038h97.629v37.314h-97.629z" fill="#eae1dc"/><g><path d="m321.11 50.201h-130.224c-19.242 0-34.986 15.744-34.986 34.986v103.362c0 17.584 13.15 32.239 30.1 34.635v18.067l29.174-17.716h105.936c19.242 0 34.986-15.743 34.986-34.986v-103.363c-.001-19.242-15.744-34.985-34.986-34.985z" fill="#fedd55"/><path d="m356.1 85.19v103.36c0 19.24-15.75 34.98-34.99 34.98h-65.11v-173.33h65.11c19.24 0 34.99 15.74 34.99 34.99z" fill="#fcc63d"/><g><ellipse cx="255.998" cy="184.361" fill="#776d6b" rx="8.427" ry="8.427" transform="matrix(.973 -.23 .23 .973 -35.509 63.748)"/><g><g><path d="m264.42 184.36c0 4.66-3.77 8.43-8.42 8.43v-16.86c4.65 0 8.42 3.78 8.42 8.43z" fill="#57555c"/></g></g><path d="m284.668 109.307c-.776-14.943-13.111-26.886-28.083-27.188-14.522-.282-27.015 10.33-29.021 24.707-.184 1.313-.277 2.658-.277 3.997h15c0-.646.044-1.292.133-1.921.944-6.767 6.757-11.789 13.583-11.789.093 0 .187.001.281.002 7.147.145 13.035 5.841 13.405 12.969.197 3.807-1.134 7.421-3.749 10.175-2.617 2.757-6.148 4.275-9.942 4.275h-7.5v29.679h15v-15.686c5.039-1.371 9.678-4.104 13.32-7.94 5.475-5.767 8.264-13.324 7.85-21.28z" fill="#776d6b"/><path d="m276.82 130.59c-3.64 3.83-8.28 6.57-13.32 7.94v15.68h-7.5v-29.68c3.79 0 7.32-1.51 9.94-4.27 2.61-2.76 3.95-6.37 3.75-10.18-.37-7.12-6.26-12.82-13.41-12.96-.09-.01-.18-.01-.28-.01v-15c.19 0 .39.01.59.01 14.97.3 27.3 12.24 28.08 27.19.41 7.95-2.38 15.51-7.85 21.28z" fill="#57555c"/></g></g></g></svg>