<svg id="Flat" height="512" viewBox="0 0 512 512" width="512" xmlns="http://www.w3.org/2000/svg"><path d="m448 496-32.851-131.4a80 80 0 0 0 -77.611-60.6h-163.076a80 80 0 0 0 -77.611 60.6l-32.851 131.4" fill="#0093ba"/><path d="m264 372-40-30v-38h-16v46l40 30z" fill="#e9f0f1"/><path d="m242.667 356-13.334 10 18.667 14 16-8z" fill="#ccdce5"/><path d="m160 472h192v24h-192z" fill="#e9589d"/><path d="m232 496v-112l56-42v-38h16v46l-56 42v104z" fill="#e9f0f1"/><path d="m360 496h-16v-24a8 8 0 0 1 2.343-5.657c.113-.114 13.657-14.133 13.657-34.343s-13.544-34.229-13.681-34.368a8.084 8.084 0 0 1 -2.319-5.632v-16h16v12.964c4.963 5.969 16 21.648 16 43.036s-11.037 37.067-16 43.036z" fill="#047fa7"/><path d="m168 496h-16v-20.964c-4.963-5.969-16-21.648-16-43.036s11.037-37.067 16-43.036v-12.964h16v16a8 8 0 0 1 -2.343 5.657c-.113.114-13.657 14.133-13.657 34.343s13.544 34.229 13.681 34.368a8.084 8.084 0 0 1 2.319 5.632z" fill="#047fa7"/><path d="m216 408h32v32h-32z" fill="#bd1f5e"/><path d="m280 448-32-8v-32l32-8z" fill="#a81c54"/><path d="m184 448 32-8v-32l-32-8z" fill="#a81c54"/><path d="m216 440h32v56h-32z" fill="#a81c54"/><path d="m176 40h160v16h-160z" fill="#ffc119"/><circle cx="256" cy="76" fill="#704a22" r="52"/><path d="m344 176h24a24 24 0 0 1 24 24 24 24 0 0 1 -24 24h-24a0 0 0 0 1 0 0v-48a0 0 0 0 1 0 0z" fill="#ec917f"/><path d="m120 176h24a24 24 0 0 1 24 24 24 24 0 0 1 -24 24h-24a0 0 0 0 1 0 0v-48a0 0 0 0 1 0 0z" fill="#ec917f" transform="matrix(-1 0 0 -1 288 400)"/><path d="m224 281.856v60.144l32 24 32-24v-60.144z" fill="#f5be9a"/><path d="m224 330.976a103.918 103.918 0 0 0 32 5.024 103.918 103.918 0 0 0 32-5.024v-49.12h-64z" fill="#ec917f"/><rect fill="#f5be9a" height="264" rx="104" width="208" x="152" y="56"/><path d="m152 176h16a48 48 0 0 0 48-48 48 48 0 0 0 48 48h8v-48a48 48 0 0 0 48 48h40v-16a104 104 0 0 0 -104-104 104 104 0 0 0 -104 104z" fill="#80582e"/><g fill="#a3783b"><path d="m256 256h-8a8 8 0 0 1 0-16h8v-16a8 8 0 0 1 16 0v16a16.019 16.019 0 0 1 -16 16z"/><path d="m232 208h-32a8 8 0 0 1 0-16h32a8 8 0 0 1 0 16z"/><path d="m312 208h-32a8 8 0 0 1 0-16h32a8 8 0 0 1 0 16z"/><circle cx="216" cy="224" r="8"/><circle cx="296" cy="224" r="8"/><path d="m264 296h-16a8 8 0 0 1 0-16h16a8 8 0 0 1 0 16z"/></g></svg>