<svg height="512" viewBox="0 0 64 64" width="512" xmlns="http://www.w3.org/2000/svg"><g id="Boss-Manager-Laptop-Human_Resource-Business_Woman" data-name="Boss-Manager-Laptop-Human Resource-Business Woman"><path d="m52 9v38h-40v-38a6 6 0 0 1 6-6h28a6 6 0 0 1 6 6z" fill="#c49a6c"/><path d="m45 28a5 5 0 0 1 -5 5h-16a4.986 4.986 0 0 1 -2.48-9.32 2.957 2.957 0 0 1 -.52-1.68 3 3 0 0 1 3-3v-4a8.115 8.115 0 0 1 .15-1.57 8 8 0 0 1 15.85 1.57v4a3 3 0 0 1 3 3 2.957 2.957 0 0 1 -.52 1.68 4.994 4.994 0 0 1 2.52 4.32z" fill="#57565c"/><path d="m37.72 31.21c-.77 1.62-3.04 2.79-5.72 2.79s-4.95-1.17-5.72-2.79l2.72-1.21v-3h6v3z" fill="#ffc477"/><path d="m35 27v2.32a6.958 6.958 0 0 1 -6 0v-2.32z" fill="#ffb655"/><path d="m61 47v4h-3-52-3v-4h9 6 6 16 6 6z" fill="#a97c50"/><path d="m6 51h52v10h-52z" fill="#a97c50"/><path d="m46 38.87v8.13h-6a2.006 2.006 0 0 0 2-2v-2l1.5-9.01a6 6 0 0 1 2.5 4.88z" fill="#ed539d"/><path d="m42 43v2a2.006 2.006 0 0 1 -2 2h-16a2.006 2.006 0 0 1 -2-2v-2z" fill="#898890"/><path d="m24 47h-6v-8.13a6 6 0 0 1 2.5-4.88l1.5 9.01v2a2.006 2.006 0 0 0 2 2z" fill="#ed539d"/><path d="m43.61 33.33-.11.66-1.5 9.01h-20l-1.5-9.01-.11-.66a1.931 1.931 0 0 1 .37-1.52 1.979 1.979 0 0 1 1.6-.81h19.28a2.027 2.027 0 0 1 1.6.8 1.984 1.984 0 0 1 .37 1.53z" fill="#d8d7da"/><circle cx="32" cy="37" fill="#f1f2f2" r="2"/><path d="m6 51h52v2h-52z" fill="#8b5e3c"/><path d="m37.66 17a4 4 0 0 1 -2.83-1.17l-1.83-1.83-.81 1.22a3.992 3.992 0 0 1 -3.33 1.78h-3.86v4a7 7 0 0 0 14 0v-4z" fill="#ffc477"/><path d="m28 19h2v2h-2z" fill="#ee8700"/><path d="m34 19h2v2h-2z" fill="#ee8700"/><g fill="#a97c50"><path d="m45 12h7v2h-7z"/><path d="m45 16h7v2h-7z"/><path d="m47 24h5v2h-5z"/><path d="m47 28h5v2h-5z"/><path d="m12 12h7v2h-7z"/><path d="m12 16h7v2h-7z"/><path d="m12 24h5v2h-5z"/><path d="m12 28h5v2h-5z"/></g></g></svg>