<?xml version="1.0" encoding="iso-8859-1"?>
<!-- Generator: Adobe Illustrator 19.0.0, SVG Export Plug-In . SVG Version: 6.00 Build 0)  -->
<svg version="1.1" id="Capa_1" xmlns="http://www.w3.org/2000/svg" xmlns:xlink="http://www.w3.org/1999/xlink" x="0px" y="0px"
	 viewBox="0 0 464 464" style="enable-background:new 0 0 464 464;" xml:space="preserve">
<path style="fill:#FDBD40;" d="M0,112h416c26.51,0,48,21.49,48,48v272l0,0H0l0,0V112L0,112z"/>
<path style="fill:#5F79BA;" d="M80,256h48c26.51,0,48,21.49,48,48v96l0,0H32l0,0v-96C32,277.49,53.49,256,80,256z"/>
<g>
	<circle style="fill:#FCF05A;" cx="104" cy="200" r="56"/>
	<path style="fill:#FCF05A;" d="M240,192h16v16h-16V192z"/>
	<path style="fill:#FCF05A;" d="M272,192h16v16h-16V192z"/>
	<path style="fill:#FCF05A;" d="M304,192h16v16h-16V192z"/>
	<path style="fill:#FCF05A;" d="M336,192h16v16h-16V192z"/>
	<path style="fill:#FCF05A;" d="M368,192h16v16h-16V192z"/>
	<path style="fill:#FCF05A;" d="M400,192h16v16h-16V192z"/>
	<path style="fill:#FCF05A;" d="M216,280h224v16H216V280z"/>
	<path style="fill:#FCF05A;" d="M216,312h224v16H216V312z"/>
	<path style="fill:#FCF05A;" d="M216,344h224v16H216V344z"/>
	<path style="fill:#FCF05A;" d="M216,376h224v16H216V376z"/>
</g>
<path style="fill:#5F79BA;" d="M160,80h144l0,0v48c0,8.837-7.163,16-16,16H176c-8.837,0-16-7.163-16-16V80L160,80z"/>
<g>
	<path style="fill:#FCF05A;" d="M192,32h80v48h-80V32z"/>
	<path style="fill:#FCF05A;" d="M104,256l-16,64l16,24l16-24L104,256z"/>
</g>
<g>
</g>
<g>
</g>
<g>
</g>
<g>
</g>
<g>
</g>
<g>
</g>
<g>
</g>
<g>
</g>
<g>
</g>
<g>
</g>
<g>
</g>
<g>
</g>
<g>
</g>
<g>
</g>
<g>
</g>
</svg>
