<svg id="Flat" height="512" viewBox="0 0 512 512" width="512" xmlns="http://www.w3.org/2000/svg"><path d="m160 168h-16a24 24 0 0 0 -24 24 24 24 0 0 0 24 24h16z" fill="#ec917f"/><path d="m352 168h16a24 24 0 0 1 24 24 24 24 0 0 1 -24 24h-16z" fill="#ec917f"/><path d="m400 376v120h-288v-120a79.975 79.975 0 0 1 80-80h128a79.975 79.975 0 0 1 80 80z" fill="#ccdce5"/><path d="m256 366v130h-96v-193.33a79.589 79.589 0 0 1 32-6.67h32v46z" fill="#047fa7"/><path d="m240 496v-122l-32-24v-54h16v46l32 24v130z" fill="#e9f0f1"/><path d="m240 374v18h16v-26l-13.333-10-13.334 10z" fill="#ccdce5"/><path d="m352 302.67v193.33h-120v-112l56-42v-46h32a79.589 79.589 0 0 1 32 6.67z" fill="#0093ba"/><path d="m304 296v54l-56 42v104h-16v-112l56-42v-46z" fill="#e9f0f1"/><path d="m232 408h32v32h-32z" fill="#bd1f5e"/><path d="m296 448-32-8v-32l32-8z" fill="#a81c54"/><path d="m200 496v-56l32-32v88z" fill="#a81c54"/><path d="m288 296v46l-32 24-32-24v-46z" fill="#f5be9a"/><path d="m288 296v38.38a88.688 88.688 0 0 1 -16.88 1.62h-30.24a88.688 88.688 0 0 1 -16.88-1.62v-38.38z" fill="#ec917f"/><path d="m271.122 320h-30.244a88.878 88.878 0 0 1 -67.478-31.037 88.876 88.876 0 0 1 -21.4-57.841v-125.846a65.276 65.276 0 0 1 65.276-65.276h77.448a65.276 65.276 0 0 1 65.276 65.276v125.846a88.876 88.876 0 0 1 -21.4 57.841 88.878 88.878 0 0 1 -67.478 31.037z" fill="#f5be9a"/><g fill="#a3783b"><path d="m256 232h-8a8 8 0 0 1 0-16h8v-32a16.019 16.019 0 0 1 16-16h40a8 8 0 0 1 0 16h-40v32a16.019 16.019 0 0 1 -16 16z"/><path d="m232 184h-32a8 8 0 0 1 0-16h32a8 8 0 0 1 0 16z"/><path d="m264 296h-16a8 8 0 0 1 0-16h16a8 8 0 0 1 0 16z"/></g><path d="m152 144h16a48 48 0 0 0 48-48 48 48 0 0 0 48 48h8v-48a48 48 0 0 0 48 48h40v-38.72a65.28 65.28 0 0 0 -65.28-65.28h-77.44a65.28 65.28 0 0 0 -65.28 65.28z" fill="#354f5c"/><circle cx="216" cy="200" fill="#a3783b" r="8"/><circle cx="296" cy="200" fill="#a3783b" r="8"/></svg>