<svg width="38" height="38" viewBox="0 0 38 38" fill="none" xmlns="http://www.w3.org/2000/svg">
<path d="M37.25 19C37.25 29.0792 29.0792 37.25 19 37.25C8.9208 37.25 0.75 29.0792 0.75 19C0.75 8.9208 8.9208 0.75 19 0.75C29.0792 0.75 37.25 8.9208 37.25 19Z" stroke="white" stroke-width="1.5"/>
<path d="M18.9148 19.9319C18.9391 19.9319 18.9635 19.9319 18.9927 19.9319C19.0024 19.9319 19.0122 19.9319 19.0219 19.9319C19.0365 19.9319 19.056 19.9319 19.0706 19.9319C20.4972 19.907 21.6512 19.3951 22.5033 18.416C24.3779 16.2591 24.0663 12.5614 24.0322 12.2085C23.9104 9.55954 22.6834 8.29219 21.6707 7.70077C20.916 7.25844 20.0347 7.01988 19.0511 7H19.017C19.0122 7 19.0024 7 18.9975 7H18.9683C18.4279 7 17.3664 7.08946 16.3488 7.68089C15.3263 8.27231 14.0798 9.53966 13.958 12.2085C13.924 12.5614 13.6123 16.2591 15.4869 18.416C16.3342 19.3951 17.4881 19.907 18.9148 19.9319ZM15.2581 12.3328C15.2581 12.3179 15.263 12.303 15.263 12.293C15.4236 8.72955 17.902 8.34686 18.9635 8.34686H18.9829C18.9927 8.34686 19.0073 8.34686 19.0219 8.34686C20.3365 8.37668 22.5715 8.92338 22.7224 12.293C22.7224 12.3079 22.7224 12.3228 22.7273 12.3328C22.7321 12.3676 23.073 15.7472 21.5246 17.5264C20.9111 18.2321 20.0931 18.58 19.017 18.59C19.0073 18.59 19.0024 18.59 18.9927 18.59C18.9829 18.59 18.9781 18.59 18.9683 18.59C17.8971 18.58 17.0743 18.2321 16.4656 17.5264C14.9221 15.7571 15.2532 12.3626 15.2581 12.3328Z" fill="white"/>
<path d="M28.9986 26.0648C28.9986 26.0598 28.9986 26.0549 28.9986 26.0499C28.9986 26.0101 28.9938 25.9704 28.9938 25.9257C28.9646 24.9416 28.9013 22.6405 26.7881 21.905C26.7735 21.9 26.754 21.895 26.7394 21.89C24.5434 21.3185 22.7175 20.0263 22.698 20.0114C22.401 19.7977 21.992 19.8722 21.7827 20.1754C21.5733 20.4786 21.6463 20.896 21.9433 21.1098C22.0261 21.1694 23.964 22.5461 26.3888 23.1822C27.5233 23.5947 27.6499 24.8323 27.684 25.9654C27.684 26.0101 27.684 26.0499 27.6889 26.0897C27.6937 26.537 27.6645 27.2278 27.5866 27.6254C26.7978 28.0826 23.7059 29.6631 19.0024 29.6631C14.3184 29.6631 11.207 28.0777 10.4134 27.6204C10.3355 27.2228 10.3014 26.532 10.3111 26.0847C10.3111 26.0449 10.316 26.0052 10.316 25.9604C10.3501 24.8273 10.4767 23.5898 11.6112 23.1773C14.036 22.5411 15.9738 21.1595 16.0566 21.1048C16.3536 20.8911 16.4267 20.4736 16.2173 20.1704C16.0079 19.8673 15.5989 19.7927 15.3019 20.0064C15.2824 20.0213 13.4663 21.3135 11.2606 21.8851C11.2411 21.89 11.2265 21.895 11.2119 21.9C9.09871 22.6405 9.03541 24.9416 9.00619 25.9207C9.00619 25.9654 9.00619 26.0052 9.00133 26.0449C9.00133 26.0499 9.00133 26.0549 9.00133 26.0598C8.99646 26.3183 8.99159 27.6453 9.24965 28.3112C9.29834 28.4405 9.38598 28.5498 9.50284 28.6244C9.64891 28.7238 13.1498 31 19.0073 31C24.8648 31 28.3657 28.7188 28.5117 28.6244C28.6237 28.5498 28.7162 28.4405 28.7649 28.3112C29.0084 27.6502 29.0035 26.3233 28.9986 26.0648Z" fill="white"/>
</svg>
